<?xml version="1.0" encoding="iso-8859-1"?>
<!-- Generator: Adobe Illustrator 19.0.0, SVG Export Plug-In . SVG Version: 6.00 Build 0)  -->
<svg version="1.1" id="Layer_1" xmlns="http://www.w3.org/2000/svg" xmlns:xlink="http://www.w3.org/1999/xlink" x="0px" y="0px"
	 viewBox="0 0 512 512" style="enable-background:new 0 0 512 512;" xml:space="preserve">
<g>
	<g>
		<g>
			<path d="M92.38,87.736h54.101c5.896,0,10.678-4.781,10.678-10.678s-4.782-10.678-10.678-10.678H92.38
				c-5.896,0-10.678,4.781-10.678,10.678S86.484,87.736,92.38,87.736z" fill="white"/>
			<path d="M92.38,130.447h44.847c5.896,0,10.678-4.781,10.678-10.678c0-5.896-4.782-10.678-10.678-10.678H92.38
				c-5.896,0-10.678,4.781-10.678,10.678C81.702,125.666,86.484,130.447,92.38,130.447z" fill="white"/>
			<path d="M169.26,130.447h28.474c5.896,0,10.678-4.781,10.678-10.678c0-5.896-4.781-10.678-10.678-10.678H169.26
				c-5.896,0-10.678,4.781-10.678,10.678C158.582,125.666,163.364,130.447,169.26,130.447z" fill="white"/>
			<path d="M246.496,109.092c-5.896,0-10.678,4.781-10.678,10.678c0,5.896,4.781,10.678,10.678,10.678h60.863
				c5.896,0,10.678-4.781,10.678-10.678c0-5.896-4.78-10.678-10.678-10.678H246.496z" fill="white"/>
			<path d="M318.037,162.481c0-5.896-4.781-10.678-10.678-10.678H92.38c-5.896,0-10.678,4.782-10.678,10.678
				c0,5.896,4.782,10.678,10.678,10.678h214.979C313.256,173.159,318.037,168.377,318.037,162.481z" fill="white"/>
			<path d="M189.548,87.736h117.811c5.896,0,10.678-4.781,10.678-10.678s-4.781-10.678-10.678-10.678H189.548
				c-5.896,0-10.678,4.781-10.678,10.678S183.652,87.736,189.548,87.736z" fill="white"/>
			<path d="M421.256,248.971h-72.075c-5.896,0-10.678,4.781-10.678,10.678c0,5.896,4.781,10.678,10.678,10.678h72.075
				c5.896,0,10.678-4.782,10.678-10.678C431.934,253.752,427.153,248.971,421.256,248.971z" fill="white"/>
			<path d="M421.256,292.393h-46.982c-5.896,0-10.678,4.781-10.678,10.678c0,5.896,4.781,10.678,10.678,10.678h46.982
				c5.896,0,10.678-4.782,10.678-10.678C431.934,297.175,427.153,292.393,421.256,292.393z" fill="white"/>
			<path d="M435.137,163.651h-53.745V69.317C381.393,31.096,350.297,0,312.076,0H87.664C49.442,0,18.348,31.096,18.348,69.317
				v101.616c0,38.221,31.095,69.317,69.316,69.317h105.884v42.992h-1.872c-30.138,0-54.656,24.518-54.656,54.655v76.211
				c0,27.069,19.781,49.606,45.646,53.913v33.301c0,3.878,2.102,7.451,5.492,9.333c1.616,0.898,3.402,1.344,5.186,1.344
				c1.959,0,3.917-0.539,5.639-1.611l66.926-41.625h94.071c30.138,0,54.656-24.518,54.656-54.656v-50.528h20.5
				c32.265,0,58.515-26.25,58.515-58.515v-82.899C493.652,189.9,467.402,163.651,435.137,163.651z M87.664,218.895
				c-26.445,0-47.96-21.515-47.96-47.961V69.317c0-26.447,21.516-47.961,47.96-47.961h224.412c26.447,0,47.961,21.515,47.961,47.961
				v101.616c0,26.447-21.515,47.961-47.961,47.961h-2.224c-5.896,0-10.678,4.782-10.678,10.678v51.115l-75.398-59.498
				c-1.885-1.486-4.214-2.295-6.614-2.295H87.664z M393.282,414.107h-0.001c0,18.362-14.938,33.301-33.301,33.301h-97.121
				c-1.994,0-3.946,0.557-5.639,1.611l-53.198,33.087v-24.021c0-5.896-4.781-10.678-10.678-10.678h-1.668
				c-18.362,0-33.301-14.938-33.301-33.301v-76.211c0-18.36,14.938-33.3,33.301-33.3h1.872v0.467
				c0,29.254,21.577,53.563,49.653,57.846v49.661c0,4.092,2.337,7.824,6.02,9.609c1.481,0.718,3.072,1.069,4.657,1.069
				c2.357,0,4.694-0.779,6.615-2.295L333.2,363.58h60.082V414.107z M472.297,305.063L472.297,305.063
				c0,20.49-16.669,37.16-37.16,37.16H329.493c-2.4,0-4.73,0.809-6.614,2.295l-58.323,46.024v-37.641
				c0-5.896-4.781-10.678-10.678-10.678h-1.815c-20.49,0-37.16-16.669-37.16-37.16v-63.671l88.334,69.705
				c1.921,1.515,4.258,2.295,6.616,2.295c1.582,0,3.176-0.352,4.656-1.07c3.682-1.784,6.02-5.516,6.02-9.608v-62.978
				c29.58-3.611,53.447-25.933,59.41-54.731h55.198c20.49,0,37.16,16.669,37.16,37.159V305.063z" fill="white"/>
		</g>
	</g>
</g>
<g>
</g>
<g>
</g>
<g>
</g>
<g>
</g>
<g>
</g>
<g>
</g>
<g>
</g>
<g>
</g>
<g>
</g>
<g>
</g>
<g>
</g>
<g>
</g>
<g>
</g>
<g>
</g>
<g>
</g>
</svg>
